<?xml version="1.0" encoding="iso-8859-1"?>
<!-- Uploaded to: SVG Repo, www.svgrepo.com, Generator: SVG Repo Mixer Tools -->
<svg height="800px" width="800px" version="1.1" id="Layer_1" xmlns="http://www.w3.org/2000/svg" xmlns:xlink="http://www.w3.org/1999/xlink" 
	 viewBox="0 0 469.481 469.481" xml:space="preserve">
<g>
	<polyline style="fill:#F7B239;" points="355.634,427.481 351.824,448.48 349.094,463.481 324.754,463.481 324.754,427.481 
		355.634,427.481 	"/>
	<polyline style="fill:#F7B239;" points="144.739,427.481 144.739,463.481 120.399,463.481 117.669,448.48 113.849,427.481 
		144.739,427.481 	"/>
	<polyline style="fill:#A17A36;" points="138.74,433.481 121.039,433.481 123.769,448.48 138.74,448.48 138.74,433.481 	"/>
	<polyline style="fill:#A17A36;" points="348.445,433.481 330.754,433.481 330.754,448.48 345.721,448.48 348.445,433.481 	"/>
	<polygon style="fill:#F7B239;" points="391.484,6 391.484,31.5 375.734,31.5 90.745,31.5 77.995,31.5 77.995,6 	"/>
	<polyline style="fill:#F7B239;" points="375.734,247.49 375.734,427.48 233.245,427.48 233.245,248.99 233.245,247.49 
		375.734,247.49 	"/>
	<polyline style="fill:#F7B239;" points="90.745,31.5 90.745,93 90.745,169.49 90.745,247.49 233.245,247.49 375.734,247.49 
		375.734,169.49 375.734,93 375.734,31.5 90.745,31.5 	"/>
	<path style="fill:#A17A36;" d="M343.24,175.49h-220v66h220V175.49 M343.24,103.5h-220v59.99h220V103.5 M343.24,37.5h-220v54h220
		V37.5"/>
	<polygon style="fill:#F7B239;" points="233.245,248.99 233.245,427.48 90.745,427.48 90.745,247.49 233.245,247.49 	"/>
	<path style="fill:#333333;" d="M200.245,379.98c-8.547,0-15.5-6.953-15.5-15.5v-4.5c0-3.313,2.687-6,6-6s6,2.687,6,6v4.5
		c0,1.93,1.57,3.5,3.5,3.5c0.938,0,1.817-0.363,2.478-1.022c0.659-0.66,1.022-1.54,1.022-2.478v-51c0-1.93-1.57-3.5-3.5-3.5
		c-0.938,0-1.817,0.363-2.477,1.022c-0.66,0.66-1.023,1.54-1.023,2.478v4.5c0,3.313-2.687,6-6,6s-6-2.687-6-6v-4.5
		c0-4.145,1.612-8.038,4.539-10.963c2.924-2.925,6.817-4.537,10.961-4.537c8.547,0,15.5,6.953,15.5,15.5v51
		c0,4.143-1.611,8.036-4.537,10.962C208.281,378.369,204.389,379.98,200.245,379.98z"/>
	<path style="fill:#333333;" d="M266.234,379.98c-4.137,0-8.026-1.611-10.952-4.537c-2.933-2.932-4.548-6.825-4.548-10.963v-51
		c0-8.547,6.953-15.5,15.5-15.5c4.144,0,8.037,1.612,10.963,4.538c2.926,2.926,4.537,6.819,4.537,10.962v4.5c0,3.313-2.687,6-6,6
		s-6-2.687-6-6v-4.5c0-0.938-0.363-1.817-1.022-2.477c-0.66-0.66-1.54-1.023-2.478-1.023c-1.93,0-3.5,1.57-3.5,3.5v51
		c0,0.932,0.366,1.812,1.032,2.477c0.66,0.66,1.536,1.023,2.468,1.023c1.93,0,3.5-1.57,3.5-3.5v-4.5c0-3.313,2.687-6,6-6
		s6,2.687,6,6v4.5C281.734,373.027,274.782,379.98,266.234,379.98z"/>
	<path style="fill:#333333;" d="M391.484,0H77.995c-3.314,0-6,2.687-6,6v25.5c0,3.313,2.687,6,6,6h6.75v389.98c0,3.313,2.687,6,6,6
		h18.096l5.655,31.075c0.52,2.852,3.004,4.926,5.903,4.926h24.34c3.313,0,6-2.686,6-6V433.48h168.015v30.001c0,3.313,2.687,6,6,6
		h24.34c2.9,0,5.385-2.074,5.904-4.928l5.645-31.073h15.094c3.313,0,6-2.686,6-6V37.5h9.75c3.313,0,6-2.686,6-6V6
		C397.486,2.687,394.799,0,391.484,0 M138.74,457.48h-13.333l-4.367-24h17.7V457.48 M344.086,457.48h-13.332v-24h17.691
		L344.086,457.48 M111.24,37.5v203.99H96.745V37.5H111.24 M123.24,241.49v-66h220v66H123.24 M343.24,163.49h-220V103.5h220V163.49
		 M343.24,91.5h-220v-54h220V91.5 M96.745,253.49h130.5v167.99h-130.5V253.49 M239.245,421.48V253.49h130.49v167.99H239.245
		 M369.736,241.49H355.24V37.5h14.495v203.99 M385.484,25.5H83.995V12h301.49V25.5"/>
	<polyline style="fill:#A17A36;" points="111.24,37.5 96.745,37.5 96.745,48.7 111.24,48.7 111.24,37.5 	"/>
	<polyline style="fill:#333333;" points="116.705,31.5 90.745,31.5 90.745,48.7 96.745,48.7 96.745,37.5 111.24,37.5 111.24,48.7 
		116.705,48.7 116.705,31.5 	"/>
	<polyline style="fill:#A17A36;" points="369.736,37.5 355.24,37.5 355.24,48.7 369.736,48.7 369.736,37.5 	"/>
	<polyline style="fill:#333333;" points="374.704,31.5 348.745,31.5 348.745,48.7 355.24,48.7 355.24,37.5 369.736,37.5 
		369.736,48.7 374.704,48.7 374.704,31.5 	"/>
	<path style="fill:#FFFFFF;" d="M354.465,410.97c-3.313,0-6-2.687-6-6V294.7c0-3.313,2.687-6,6-6s6,2.687,6,6v110.27
		C360.465,408.283,357.778,410.97,354.465,410.97z"/>
	<path style="fill:#FFFFFF;" d="M354.463,277.88c-1.58,0-3.12-0.64-4.24-1.76c-0.279-0.27-0.529-0.58-0.75-0.91
		c-0.21-0.32-0.399-0.67-0.55-1.04c-0.149-0.36-0.26-0.73-0.34-1.12c-0.08-0.38-0.12-0.78-0.12-1.17c0-1.58,0.64-3.13,1.76-4.24
		c0.271-0.28,0.58-0.53,0.91-0.75s0.67-0.4,1.04-0.55c0.36-0.15,0.74-0.27,1.12-0.34c1.95-0.39,4.02,0.25,5.41,1.64
		c1.12,1.11,1.76,2.66,1.76,4.24c0,0.39-0.04,0.79-0.11,1.17c-0.079,0.39-0.199,0.76-0.35,1.12c-0.15,0.37-0.33,0.72-0.55,1.04
		c-0.22,0.33-0.47,0.64-0.75,0.91C357.592,277.239,356.043,277.88,354.463,277.88z"/>
</g>
</svg>