<?xml version="1.0" encoding="iso-8859-1"?>
<!-- Uploaded to: SVG Repo, www.svgrepo.com, Generator: SVG Repo Mixer Tools -->
<svg version="1.1" id="Layer_1" xmlns="http://www.w3.org/2000/svg" xmlns:xlink="http://www.w3.org/1999/xlink" 
	 viewBox="0 0 511.998 511.998" xml:space="preserve">
<path d="M496.246,484.572c-1.024,0-2.065-0.11-3.072-0.315c-1.008-0.205-2.001-0.504-2.962-0.898
	c-0.947-0.394-1.859-0.882-2.71-1.449c-0.868-0.567-1.671-1.229-2.396-1.953s-1.386-1.528-1.969-2.395
	c-0.567-0.851-1.056-1.764-1.449-2.725c-0.394-0.945-0.693-1.938-0.898-2.946c-0.205-1.008-0.298-2.048-0.298-3.072
	c0-1.024,0.095-2.064,0.298-3.072c0.205-1.008,0.504-2.001,0.898-2.962c0.394-0.945,0.882-1.859,1.449-2.71
	c0.583-0.866,1.245-1.67,1.969-2.395s1.528-1.386,2.396-1.969c0.851-0.567,1.763-1.056,2.71-1.449
	c0.961-0.378,1.953-0.693,2.962-0.882c2.032-0.41,4.112-0.41,6.144,0c1.008,0.189,2.001,0.504,2.944,0.882
	c0.961,0.394,1.875,0.882,2.725,1.449c0.866,0.583,1.67,1.245,2.395,1.969c0.726,0.725,1.388,1.528,1.953,2.395
	c0.567,0.851,1.056,1.764,1.449,2.71c0.394,0.961,0.709,1.953,0.898,2.962c0.205,1.008,0.315,2.048,0.315,3.072
	c0,1.024-0.11,2.064-0.315,3.072s-0.504,2.001-0.898,2.946c-0.394,0.961-0.882,1.875-1.449,2.725
	c-0.566,0.866-1.227,1.67-1.953,2.395c-0.725,0.725-1.528,1.386-2.395,1.953c-0.851,0.567-1.764,1.056-2.725,1.449
	c-0.945,0.394-1.936,0.693-2.944,0.898C498.31,484.461,497.269,484.572,496.246,484.572z"/>
<rect x="15.754" y="43.181" style="fill:#FFB085;" width="111.853" height="425.639"/>
<path style="fill:#C97767;" d="M384.686,43.181h-257.08v154.946h329.256v-82.769C456.863,75.495,424.549,43.181,384.686,43.181z"/>
<path d="M70.891,222.915c-1.024,0-2.065-0.095-3.072-0.299c-1.008-0.205-2.001-0.504-2.946-0.898
	c-0.961-0.394-1.873-0.882-2.724-1.449c-0.868-0.583-1.671-1.245-2.396-1.969s-1.386-1.528-1.953-2.395
	c-0.566-0.851-1.056-1.764-1.449-2.71c-0.394-0.961-0.709-1.953-0.914-2.962c-0.205-1.008-0.298-2.048-0.298-3.072
	c0-1.024,0.095-2.064,0.298-3.072c0.203-1.008,0.52-2.001,0.914-2.946c0.394-0.961,0.884-1.875,1.449-2.725
	c0.567-0.866,1.229-1.67,1.953-2.395c0.725-0.725,1.528-1.386,2.396-1.953c0.851-0.567,1.763-1.056,2.724-1.449
	c0.947-0.394,1.938-0.693,2.946-0.898c2.032-0.41,4.112-0.41,6.144,0c1.008,0.205,2.001,0.504,2.944,0.898
	c0.961,0.394,1.875,0.882,2.725,1.449c0.866,0.567,1.67,1.229,2.395,1.953c0.726,0.725,1.388,1.528,1.953,2.395
	c0.583,0.851,1.056,1.764,1.449,2.725c0.394,0.945,0.709,1.938,0.898,2.946c0.205,1.008,0.315,2.048,0.315,3.072
	c0,1.024-0.11,2.064-0.315,3.072c-0.189,1.008-0.504,2.001-0.898,2.962c-0.394,0.945-0.866,1.859-1.449,2.71
	c-0.566,0.866-1.227,1.67-1.953,2.395c-0.725,0.725-1.528,1.386-2.395,1.969c-0.851,0.567-1.764,1.056-2.725,1.449
	c-0.945,0.394-1.936,0.693-2.944,0.898C72.955,222.821,71.913,222.915,70.891,222.915z"/>
<path style="fill:#FFB085;" d="M316.653,270.178L316.653,270.178c-25.231,0-45.686-20.455-45.686-45.686v-26.366h91.373v26.366
	C362.34,249.724,341.885,270.178,316.653,270.178z"/>
<path style="fill:#00AE90;" d="M316.653,452.922L316.653,452.922c-37.652,0-68.175-30.523-68.175-68.175V361.62h136.35v23.127
	C384.828,422.399,354.305,452.922,316.653,452.922z"/>
<path d="M384.686,27.427H15.754C7.055,27.427,0,34.48,0,43.181v425.634c0,8.701,7.055,15.754,15.754,15.754h433.229
	c8.699,0,15.754-7.053,15.754-15.754c0-8.701-7.055-15.754-15.754-15.754h-83.664c18.514-13.227,31.44-33.77,34.528-57.379h15.965
	c8.699,0,15.754-7.053,15.754-15.754s-7.055-15.754-15.754-15.754h-15.229v-2.555c0-8.701-7.055-15.754-15.754-15.754h-136.35
	c-8.699,0-15.754,7.053-15.754,15.754v23.128c0,28.146,13.941,53.08,35.264,68.314H143.36V213.88h111.853v10.612
	c0,28.434,19.418,52.408,45.686,59.384v23.199c0,8.701,7.055,15.754,15.754,15.754s15.754-7.053,15.754-15.754v-23.199
	c26.268-6.974,45.686-30.95,45.686-59.384V213.88h78.769c8.699,0,15.754-7.053,15.754-15.754v-82.769
	C472.617,66.873,433.171,27.427,384.686,27.427z M264.232,377.373h104.842v7.374c0,28.905-23.516,52.421-52.42,52.421
	c-28.904,0-52.421-23.516-52.421-52.421v-7.374H264.232z M31.508,58.935h80.345v139.192v254.934H86.646V254.425
	c0-8.701-7.055-15.754-15.754-15.754s-15.754,7.053-15.754,15.754v198.636H31.508V58.935z M346.586,224.492
	c0,16.505-13.427,29.932-29.932,29.932s-29.932-13.427-29.932-29.932V213.88h59.865V224.492z M441.109,182.373H362.34h-91.373
	H143.36V58.935h241.326c31.112,0,56.423,25.312,56.423,56.423V182.373z"/>
<circle style="fill:#FFAB64;" cx="375.384" cy="120.517" r="31.508"/>
<path d="M375.374,167.777c-26.06,0-47.262-21.202-47.262-47.262s21.202-47.262,47.262-47.262c26.06,0,47.262,21.202,47.262,47.262
	S401.434,167.777,375.374,167.777z M375.374,104.761c-8.687,0-15.754,7.067-15.754,15.754s7.067,15.754,15.754,15.754
	s15.754-7.067,15.754-15.754S384.061,104.761,375.374,104.761z"/>
</svg>