<?xml version="1.0" encoding="iso-8859-1"?>
<!-- Uploaded to: SVG Repo, www.svgrepo.com, Generator: SVG Repo Mixer Tools -->
<svg version="1.1" id="Layer_1" xmlns="http://www.w3.org/2000/svg" xmlns:xlink="http://www.w3.org/1999/xlink" 
	 viewBox="0 0 512 512" xml:space="preserve">
<g>
	<rect x="10.324" y="239.343" style="fill:#C5824B;" width="491.353" height="45.479"/>
	<path style="fill:#C5824B;" d="M476.191,284.827H35.809l16.2,111.171c1.813,12.44,13.555,21.739,27.449,21.739h353.082
		c13.894,0,25.637-9.299,27.449-21.739L476.191,284.827z"/>
</g>
<g>
	<path style="fill:#ADDE52;" d="M140.482,190.411H114.53c-38.767,0-70.194-31.427-70.194-70.194V94.264h25.953
		c38.767,0,70.194,31.427,70.194,70.194V190.411z"/>
	<path style="fill:#ADDE52;" d="M140.482,190.411h25.953c38.767,0,70.194-31.427,70.194-70.194V94.264h-25.953
		c-38.767,0-70.194,31.427-70.194,70.194L140.482,190.411L140.482,190.411z"/>
	<path style="fill:#ADDE52;" d="M371.518,190.411h-25.953c-38.767,0-70.194-31.427-70.194-70.194V94.264h25.953
		c38.767,0,70.194,31.427,70.194,70.194V190.411z"/>
	<path style="fill:#ADDE52;" d="M371.518,190.411h25.953c38.767,0,70.194-31.427,70.194-70.194V94.264h-25.953
		c-38.767,0-70.194,31.427-70.194,70.194V190.411z"/>
</g>
<g>
	<path style="fill:#5E282D;" d="M501.676,229.017H381.842v-28.283h15.628c44.398,0,80.519-36.12,80.519-80.519V94.263
		c0-5.702-4.622-10.324-10.324-10.324h-25.952c-30.101,0-56.38,16.613-70.194,41.142c-13.815-24.529-40.094-41.142-70.195-41.142
		h-25.953c-5.702,0-10.324,4.622-10.324,10.324v25.953c0,44.398,36.12,80.519,80.519,80.519h15.628v28.283H150.807v-28.283h15.628
		c44.398,0,80.519-36.12,80.519-80.519V94.263c0-5.702-4.622-10.324-10.324-10.324h-25.953c-30.101,0-56.38,16.613-70.194,41.142
		c-13.815-24.529-40.094-41.142-70.194-41.142H44.334c-5.702,0-10.324,4.622-10.324,10.324v25.953
		c0,44.398,36.12,80.519,80.519,80.519h15.628v28.283H10.324C4.622,229.017,0,233.64,0,239.342v45.485
		c0,5.702,4.622,10.325,10.324,10.325h16.556l14.913,102.335c2.54,17.431,18.733,30.575,37.666,30.575h353.081
		c18.933,0,35.125-13.144,37.666-30.575l14.913-102.335h16.556c5.702,0,10.325-4.622,10.325-10.325v-45.485
		C512,233.64,507.378,229.017,501.676,229.017z M441.713,104.588h15.628v15.628c0,33.013-26.858,59.87-59.87,59.87h-1.027
		l21.806-21.806c4.032-4.032,4.032-10.569,0-14.602c-4.032-4.032-10.569-4.032-14.602,0l-21.806,21.806v-1.027
		C381.842,131.445,408.699,104.588,441.713,104.588z M285.695,120.217v-15.629h15.628c33.013,0,59.87,26.857,59.87,59.87v1.027
		l-48.215-48.215c-4.031-4.032-10.569-4.032-14.601,0s-4.032,10.569,0,14.601l48.215,48.214h-1.027
		C312.552,180.087,285.695,153.228,285.695,120.217z M210.676,104.588h15.628v15.628c0,33.013-26.858,59.87-59.87,59.87h-1.027
		l48.215-48.214c4.032-4.032,4.033-10.569,0-14.601c-4.032-4.032-10.569-4.032-14.601,0l-48.215,48.215v-1.027
		C150.807,131.445,177.664,104.588,210.676,104.588z M54.659,120.217v-15.629h15.628c33.013,0,59.87,26.857,59.87,59.87v1.027
		L81.942,117.27c-4.032-4.032-10.569-4.032-14.602,0c-4.033,4.032-4.032,10.569,0,14.602l48.214,48.214h-1.027
		C81.517,180.087,54.659,153.228,54.659,120.217z M449.773,394.51c-1.073,7.356-8.481,12.904-17.233,12.904H79.459
		c-8.752,0-16.16-5.547-17.233-12.904l-14.479-99.358h416.505L449.773,394.51z M20.649,274.503v-24.836h470.702v24.836H20.649z"/>
	<path style="fill:#5E282D;" d="M434.721,137.532c2.642,0,5.285-1.008,7.3-3.024l2.637-2.637c4.032-4.032,4.032-10.569,0-14.602
		c-4.032-4.031-10.569-4.031-14.602,0l-2.637,2.637c-4.032,4.032-4.032,10.569,0,14.602
		C429.436,136.524,432.079,137.532,434.721,137.532z"/>
</g>
</svg>