<?xml version="1.0" encoding="iso-8859-1"?>
<!-- Uploaded to: SVG Repo, www.svgrepo.com, Generator: SVG Repo Mixer Tools -->
<svg version="1.1" id="Layer_1" xmlns="http://www.w3.org/2000/svg" xmlns:xlink="http://www.w3.org/1999/xlink" 
	 viewBox="0 0 512 512" xml:space="preserve">
<g>
	<polygon style="fill:#4B92B9;" points="72.098,406.423 40.751,406.423 40.751,380.301 82.547,380.301 	"/>
	<polygon style="fill:#4B92B9;" points="471.249,406.423 439.902,406.423 429.453,380.301 471.249,380.301 	"/>
</g>
<path style="fill:#CAF9F4;" d="M483.265,380.301H28.735c-11.542,0-20.898-9.356-20.898-20.898V160.872
	c0-11.542,9.356-20.898,20.898-20.898h454.531c11.542,0,20.898,9.356,20.898,20.898v198.531
	C504.163,370.945,494.807,380.301,483.265,380.301z"/>
<g>
	<path style="fill:#79CAE8;" d="M483.265,380.301H28.735c-11.542,0-20.898-9.356-20.898-20.898v-62.527h496.327v62.527
		C504.163,370.945,494.807,380.301,483.265,380.301z"/>
	<polygon style="fill:#79CAE8;" points="90.384,139.974 90.384,238.194 214.204,238.194 224.653,222.521 287.347,222.521 
		297.796,238.194 421.616,238.194 421.616,139.974 	"/>
</g>
<g>
	<rect x="143.851" y="89.119" style="fill:#4B92B9;" width="224.308" height="50.852"/>
	<path style="fill:#4B92B9;" d="M404.375,357.396H107.624c-10.387,0-18.808-8.421-18.808-18.808l0,0
		c0-10.387,8.421-18.808,18.808-18.808h296.751c10.387,0,18.808,8.421,18.808,18.808l0,0
		C423.184,348.976,414.763,357.396,404.375,357.396z"/>
	<rect x="120.163" y="319.78" style="fill:#4B92B9;" width="271.673" height="83.592"/>
</g>
<g>
	<path style="fill:#79CAE8;" d="M164.397,373.334L164.397,373.334c-7.117,0-12.887-5.77-12.887-12.887V319.78h25.774v40.667
		C177.285,367.565,171.515,373.334,164.397,373.334z"/>
	<path style="fill:#79CAE8;" d="M347.603,373.334L347.603,373.334c-7.118,0-12.887-5.77-12.887-12.887V319.78h25.773v40.667
		C360.49,367.565,354.72,373.334,347.603,373.334z"/>
</g>
<path style="fill:#4B92B9;" d="M275.156,422.877h-55.728c-5.771,0-10.449-4.678-10.449-10.449v-18.111
	c0-5.771,4.678-10.449,10.449-10.449h55.728c5.771,0,10.449,4.678,10.449,10.449v18.111
	C285.605,418.199,280.927,422.877,275.156,422.877z"/>
<circle style="fill:#8EC766;" cx="462.89" cy="196.399" r="15.673"/>
<polygon points="151.685,96.96 360.315,96.96 360.315,119.076 375.989,119.076 375.989,81.286 136.011,81.286 136.011,119.076 
	151.685,119.076 "/>
<path d="M483.265,132.137H28.735C12.89,132.137,0,145.027,0,160.872v198.531c0,15.845,12.89,28.735,28.735,28.735h4.18v26.122h44.49
	l10.449-26.122h24.474v23.071h88.816v1.219c0,10.082,8.203,18.286,18.286,18.286h55.728c10.082,0,18.286-8.203,18.286-18.286v-1.219
	h106.232v-23.071h24.474l10.449,26.122h44.49v-26.122h4.18c15.845,0,28.735-12.89,28.735-28.735V160.872
	C512,145.027,499.11,132.137,483.265,132.137z M98.22,147.811H413.78v82.547H301.99l-10.449-15.673H220.46l-10.449,15.673H98.22
	V147.811z M28.735,147.811h53.812v98.22h135.851l10.449-15.673h54.306l10.449,15.673h135.85v-98.22h53.812
	c7.202,0,13.061,5.859,13.061,13.061v128.167H15.673V160.872C15.673,153.669,21.532,147.811,28.735,147.811z M66.792,398.586H48.588
	v-10.449h22.384L66.792,398.586z M112.327,349.56h-4.702c-6.05,0-10.971-4.921-10.971-10.971c0-2.927,1.143-5.686,3.203-7.752
	c2.082-2.076,4.841-3.219,7.769-3.219h4.702V349.56z M277.768,412.428c0,1.44-1.172,2.612-2.612,2.612h-55.728
	c-1.44,0-2.612-1.172-2.612-2.612v-18.111c0-1.44,1.172-2.612,2.612-2.612h55.728c1.44,0,2.612,1.172,2.612,2.612V412.428z
	 M293.442,395.535v-1.219c0-10.082-8.204-18.286-18.286-18.286h-55.728c-10.082,0-18.286,8.203-18.286,18.286v1.219H128v-67.918
	h15.673v32.831c0,11.427,9.298,20.723,20.723,20.723c11.427,0,20.723-9.296,20.723-20.723v-32.831h141.758v32.831
	c0,11.427,9.296,20.723,20.723,20.723s20.723-9.296,20.723-20.723v-32.831h15.673v67.918H293.442z M159.347,327.617h10.101v32.831
	c0,2.785-2.265,5.05-5.05,5.05c-2.785,0-5.05-2.265-5.05-5.05v-32.831H159.347z M342.552,327.617h10.101v32.831
	c0,2.785-2.265,5.05-5.05,5.05c-2.785,0-5.05-2.265-5.05-5.05v-32.831H342.552z M399.673,327.617h4.702
	c6.05,0,10.971,4.921,10.971,10.971c0,2.927-1.143,5.685-3.203,7.752c-2.083,2.076-4.841,3.219-7.769,3.219h-4.702V327.617z
	 M463.412,398.586h-18.204l-4.18-10.449h22.384V398.586z M483.265,372.464h-83.592v-7.231h4.702c7.104,0,13.794-2.768,18.852-7.811
	c5.026-5.042,7.793-11.73,7.793-18.834c0-14.692-11.954-26.645-26.645-26.645H107.624c-7.104,0-13.794,2.768-18.851,7.811
	c-5.026,5.041-7.794,11.73-7.794,18.834c0,14.692,11.953,26.645,26.645,26.645h4.702v7.231H28.735
	c-7.202,0-13.061-5.859-13.061-13.061v-54.69h480.653v54.69C496.327,366.605,490.468,372.464,483.265,372.464z"/>
<path d="M462.89,219.909c12.964,0,23.51-10.546,23.51-23.51s-10.546-23.51-23.51-23.51c-12.964,0-23.51,10.546-23.51,23.51
	S449.926,219.909,462.89,219.909z M462.89,188.562c4.322,0,7.837,3.515,7.837,7.837s-3.515,7.837-7.837,7.837
	s-7.837-3.515-7.837-7.837S458.568,188.562,462.89,188.562z"/>
</svg>