<?xml version="1.0" encoding="iso-8859-1"?>
<!-- Uploaded to: SVG Repo, www.svgrepo.com, Generator: SVG Repo Mixer Tools -->
<svg version="1.1" id="Layer_1" xmlns="http://www.w3.org/2000/svg" xmlns:xlink="http://www.w3.org/1999/xlink" 
	 viewBox="0 0 432.52 432.52" xml:space="preserve">
<g>
	<path style="fill:#F2F2F2;" d="M267.25,295.67v-49.5h103.5c5.8,0,10.5,4.71,10.5,10.51v28.49c0,5.8-4.7,10.5-10.5,10.5H267.25z"/>
	
		<rect x="149.489" y="227.898" transform="matrix(0.2918 0.9565 -0.9565 0.2918 374.0307 -22.6559)" style="fill:#F2F2F2;" width="105.65" height="26.703"/>
	<polygon style="fill:#F24125;" points="174.12,194.62 174.12,295.67 147.42,295.67 147.42,158.4 174.12,158.4 	"/>
	<rect x="116.509" y="158.4" style="fill:#4CC18E;" width="30.91" height="137.27"/>
	<rect x="49.02" y="181.68" style="fill:#F24125;" width="49.49" height="113.99"/>
	<polygon style="fill:#F7B239;" points="174.12,194.62 204.95,295.67 174.12,295.67 	"/>
	<path style="fill:#F7B239;" d="M267.25,246.17v49.5h-62.3l25.54-7.79l-30.83-101.05l-25.54,7.79V158.4h-26.7h-30.91v137.27h-18
		V181.68H49.02v113.99H26V136.85h380.52v158.82h-35.77c5.8,0,10.5-4.7,10.5-10.5v-28.49c0-5.8-4.7-10.51-10.5-10.51L267.25,246.17
		L267.25,246.17z"/>
	<polygon style="opacity:0.44;fill:#333333;enable-background:new    ;" points="174.12,194.62 204.95,295.67 174.12,295.67 	"/>
	<path style="opacity:0.44;fill:#333333;enable-background:new    ;" d="M267.25,246.17v49.5h-62.3l25.54-7.79l-30.83-101.05
		l-25.54,7.79V158.4h-26.7h-30.91v137.27h-18V181.68H49.02v113.99H26V136.85h380.52v158.82h-35.77c5.8,0,10.5-4.7,10.5-10.5v-28.49
		c0-5.8-4.7-10.51-10.5-10.51L267.25,246.17L267.25,246.17z"/>
	<path style="fill:#F7B239;" d="M426.52,116.85v198.82H6V116.85H426.52z M406.52,295.67V136.85H26v158.82h23.02h49.49h18h30.91h26.7
		h30.83h62.3h103.5H406.52z"/>
	<path style="fill:#333333;" d="M426.52,321.67H6c-3.313,0-6-2.687-6-6V116.85c0-3.313,2.687-6,6-6h420.52c3.313,0,6,2.687,6,6
		v198.82C432.52,318.983,429.833,321.67,426.52,321.67z M12,309.67h408.52V122.85H12V309.67z"/>
	<path style="fill:#333333;" d="M406.52,130.85H26c-3.313,0-6,2.687-6,6v158.82c0,3.313,2.687,6,6,6h380.52c3.313,0,6-2.687,6-6
		V136.85C412.52,133.536,409.833,130.85,406.52,130.85z M92.51,289.67H55.02V187.68h37.49V289.67z M141.42,289.67h-18.91V164.4
		h18.91V289.67z M153.42,164.4h14.699v30.225c0,0.001,0,0.002,0,0.002v95.043H153.42V164.4z M208.938,288.181l-27.328-89.573
		l14.062-4.289L223,283.891L208.938,288.181z M196.845,289.67h-16.726v-54.822L196.845,289.67z M273.25,285.26h85.55
		c3.313,0,6-2.687,6-6s-2.687-6-6-6h-85.55v-4.67h34.22c3.313,0,6-2.687,6-6s-2.687-6-6-6h-34.22v-4.42h97.5
		c2.481,0,4.5,2.023,4.5,4.51v28.49c0,2.481-2.019,4.5-4.5,4.5h-97.5V285.26z M400.52,289.67h-13.91
		c0.407-1.433,0.64-2.938,0.64-4.5v-28.49c0-9.104-7.402-16.51-16.5-16.51h-103.5h-13.78c-3.313,0-6,2.687-6,6s2.687,6,6,6h7.78
		v37.5h-25.037c0.358-1.145,0.37-2.378,0.016-3.541l-30.83-101.05c-0.967-3.168-4.32-4.955-7.489-3.988l-17.79,5.426V158.4
		c0-3.313-2.687-6-6-6h-26.7h-30.91c-3.313,0-6,2.687-6,6v131.27h-6V181.68c0-3.313-2.687-6-6-6H49.02c-3.313,0-6,2.687-6,6v107.99
		H32V142.85h368.52V289.67z"/>
	<g>
		<rect x="48.47" y="200.175" style="fill:#333333;" width="49.5" height="12"/>
		<rect x="48.47" y="265.175" style="fill:#333333;" width="49.5" height="12"/>
	</g>
</g>
</svg>