<?xml version="1.0" encoding="iso-8859-1"?>
<!-- Uploaded to: SVG Repo, www.svgrepo.com, Generator: SVG Repo Mixer Tools -->
<svg height="800px" width="800px" version="1.1" id="Layer_1" xmlns="http://www.w3.org/2000/svg" xmlns:xlink="http://www.w3.org/1999/xlink" 
	 viewBox="0 0 512 512" xml:space="preserve">
<path style="fill:#3E3B43;" d="M117.991,115.987V346.5c0,15.679,12.828,28.508,28.508,28.508h38.436
	c19.365,0,35.064,15.699,35.064,35.064v61.055h71.35V410.07c0-19.365,15.699-35.064,35.064-35.064h38.436
	c15.679,0,28.508-12.828,28.508-28.508V28.508C393.354,12.828,380.525,0,364.846,0H146.499c-15.679,0-28.508,12.828-28.508,28.508
	C117.991,28.508,117.991,115.987,117.991,115.987z"/>
<path style="fill:#2F2D30;" d="M365.501,0h-50.945c15.679,0,28.507,12.828,28.507,28.508V346.5
	c0,15.679-12.828,28.508-28.507,28.508h-38.436c-19.365,0-35.064,15.699-35.064,35.064v61.055h50.945V410.07
	c0-19.365,15.699-35.064,35.064-35.064h38.436c15.68,0,28.508-12.828,28.508-28.508V28.508C394.009,12.828,381.181,0,365.501,0z"/>
<path style="fill:#77757E;" d="M255.672,146.255c48.713,0,88.203,39.49,88.203,88.203s-39.49,88.203-88.203,88.203
	s-88.203-39.49-88.203-88.203c0-28.455,13.474-53.762,34.39-69.89C201.86,164.567,226.312,146.255,255.672,146.255z"/>
<g>
	<circle style="fill:#5D5D5D;" cx="255.676" cy="234.454" r="37.825"/>
	<circle style="fill:#5D5D5D;" cx="255.676" cy="77.584" r="26.405"/>
</g>
<path style="fill:#2F2D30;" d="M310.531,85.416H193.313c-4.328,0-7.837-3.508-7.837-7.837s3.509-7.837,7.837-7.837h117.218
	c4.329,0,7.837,3.508,7.837,7.837S314.859,85.416,310.531,85.416z"/>
<path style="fill:#3E3B43;" d="M311.114,512h-110.88c-10.919,0-19.853-8.934-19.853-19.853v-1.167
	c0-10.919,8.934-19.853,19.853-19.853h110.881c10.919,0,19.853,8.934,19.853,19.853v1.167C330.967,503.066,322.033,512,311.114,512z
	"/>
<path style="fill:#2F2D30;" d="M311.184,471.127h-21.159c10.919,0,19.853,8.934,19.853,19.853v1.167
	c0,10.919-8.934,19.853-19.853,19.853h21.159c10.919,0,19.853-8.934,19.853-19.853v-1.167
	C331.037,480.061,322.103,471.127,311.184,471.127z"/>
<g>
	<path style="fill:#77757E;" d="M291.348,436.86h-48.521c-4.328,0-7.837-3.508-7.837-7.837c0-4.329,3.509-7.837,7.837-7.837h48.521
		c4.329,0,7.837,3.508,7.837,7.837C299.185,433.353,295.676,436.86,291.348,436.86z"/>
	<path style="fill:#77757E;" d="M354.589,139.498c-4.329,0-7.837-3.508-7.837-7.837V49.708c0-4.329,3.508-7.837,7.837-7.837
		c4.329,0,7.837,3.508,7.837,7.837v81.953C362.426,135.989,358.918,139.498,354.589,139.498z"/>
</g>
</svg>