<?xml version="1.0" encoding="iso-8859-1"?>
<!-- Uploaded to: SVG Repo, www.svgrepo.com, Generator: SVG Repo Mixer Tools -->
<svg height="800px" width="800px" version="1.1" id="Layer_1" xmlns="http://www.w3.org/2000/svg" xmlns:xlink="http://www.w3.org/1999/xlink" 
	 viewBox="0 0 512 512" xml:space="preserve">
<path style="fill:#FFC033;" d="M389.565,512h-267.13c-27.619,0-50.087-22.468-50.087-50.087V50.087
	C72.348,22.468,94.816,0,122.435,0h267.13c27.619,0,50.087,22.468,50.087,50.087v411.826C439.652,489.532,417.184,512,389.565,512z"
	/>
<path style="fill:#F9A926;" d="M389.565,0H256v512h133.565c27.619,0,50.087-22.468,50.087-50.087V50.087
	C439.652,22.468,417.184,0,389.565,0z"/>
<path style="fill:#736056;" d="M256,166.957c-27.619,0-50.087-22.468-50.087-50.087S228.381,66.783,256,66.783
	s50.087,22.468,50.087,50.087S283.619,166.957,256,166.957z"/>
<path style="fill:#665247;" d="M306.087,116.87c0-27.619-22.468-50.087-50.087-50.087v100.174
	C283.619,166.957,306.087,144.489,306.087,116.87z"/>
<path style="fill:#736056;" d="M256,434.087c-64.445,0-116.87-52.429-116.87-116.87s52.424-116.87,116.87-116.87
	s116.87,52.429,116.87,116.87S320.445,434.087,256,434.087z"/>
<path style="fill:#665247;" d="M372.87,317.217c0-64.441-52.424-116.87-116.87-116.87v233.739
	C320.445,434.087,372.87,381.658,372.87,317.217z"/>
<path style="fill:#EDF0F2;" d="M256,233.739c-46.032,0-83.478,37.446-83.478,83.478s37.446,83.478,83.478,83.478
	s83.478-37.446,83.478-83.478S302.032,233.739,256,233.739z"/>
<circle style="fill:#736056;" cx="155.826" cy="83.478" r="16.696"/>
<circle style="fill:#665247;" cx="356.174" cy="83.478" r="16.696"/>
<circle style="fill:#736056;" cx="155.826" cy="428.522" r="16.696"/>
<circle style="fill:#665247;" cx="356.174" cy="428.522" r="16.696"/>
<path style="fill:#DAE1E6;" d="M339.478,317.217c0-46.032-37.446-83.478-83.478-83.478v166.957
	C302.032,400.696,339.478,363.25,339.478,317.217z"/>
<path style="fill:#F2E1C2;" d="M256,100.174c-9.206,0-16.696,7.49-16.696,16.696s7.49,16.696,16.696,16.696
	s16.696-7.49,16.696-16.696S265.206,100.174,256,100.174z"/>
<path style="fill:#D9C398;" d="M272.696,116.87c0-9.206-7.49-16.696-16.696-16.696v33.391
	C265.206,133.565,272.696,126.076,272.696,116.87z"/>
<path style="fill:#736056;" d="M256,367.304c-27.619,0-50.087-22.468-50.087-50.087S228.381,267.13,256,267.13
	s50.087,22.468,50.087,50.087S283.619,367.304,256,367.304z"/>
<path style="fill:#665247;" d="M306.087,317.217c0-27.619-22.468-50.087-50.087-50.087v100.174
	C283.619,367.304,306.087,344.836,306.087,317.217z"/>
</svg>