<?xml version="1.0" encoding="utf-8"?>
<!-- Uploaded to: SVG Repo, www.svgrepo.com, Generator: SVG Repo Mixer Tools -->
<svg width="800px" height="800px" viewBox="0 0 1024 1024" class="icon"  version="1.1" xmlns="http://www.w3.org/2000/svg"><path d="M544 767.968h-64v46.272l-194.272 121.376c19.68 10.4 33.28 30.592 34.048 54.176L480 889.696v47.168c9.44-5.504 20.288-8.864 32-8.864s22.56 3.36 32 8.864v-47.168l160.224 100.128a63.68 63.68 0 0 1 34.016-54.176L544 814.24v-46.272zM192 543.968h32v64H192zM800 543.968h32v64h-32z" fill="#DAE2E5" /><path d="M768 991.968m-32 0a32 32 0 1 0 64 0 32 32 0 1 0-64 0Z" fill="#434854" /><path d="M512 991.968m-32 0a32 32 0 1 0 64 0 32 32 0 1 0-64 0Z" fill="#434854" /><path d="M256 991.968m-32 0a32 32 0 1 0 64 0 32 32 0 1 0-64 0Z" fill="#434854" /><path d="M736 607.968v-544a64 64 0 0 0-64-64H352a64 64 0 0 0-64 64v544h448z" fill="#469FCC" /><path d="M480 767.968h64v32h-64z" fill="" /><path d="M864 543.968v-224a32 32 0 0 0-32-32h-32a32 32 0 0 0-32 32v224h96zM256 543.968v-224a32 32 0 0 0-32-32H192a32 32 0 0 0-32 32v224h96z" fill="#434854" /><path d="M192 543.968h32v32H192zM800 543.968h32v32h-32z" fill="" /><path d="M288 575.968h448v32H288z" fill="" /><path d="M832 607.968H192a32 32 0 0 0-32 32 128 128 0 0 0 128 128h448a128 128 0 0 0 128-128 32 32 0 0 0-32-32z" fill="#434854" /><path d="M608 127.968m-32 0a32 32 0 1 0 64 0 32 32 0 1 0-64 0Z" fill="" /><path d="M512 255.968m-32 0a32 32 0 1 0 64 0 32 32 0 1 0-64 0Z" fill="" /><path d="M416 127.968m-32 0a32 32 0 1 0 64 0 32 32 0 1 0-64 0Z" fill="" /><path d="M608 383.968m-32 0a32 32 0 1 0 64 0 32 32 0 1 0-64 0Z" fill="" /><path d="M416 383.968m-32 0a32 32 0 1 0 64 0 32 32 0 1 0-64 0Z" fill="" /></svg>