<?xml version="1.0" ?>
<!-- Uploaded to: SVG Repo, www.svgrepo.com, Generator: SVG Repo Mixer Tools -->
<svg width="800px" height="800px" viewBox="0 0 64 64" xmlns="http://www.w3.org/2000/svg">
<defs>
<style>.cls-1{fill:#efc89d;}.cls-2{fill:#ebb87f;}.cls-3{fill:#748a95;}.cls-4{fill:#617880;}.cls-5{fill:#e5936b;}.cls-6{fill:#e17c46;}.cls-7{fill:#252b48;}</style>
</defs>
<g data-name="Table" id="Table-11">
<path class="cls-1" d="M11.89,20l21.49-3.07L52.11,20v8.52H11.89V20Z" id="rect43007-4"/>
<path class="cls-2" d="M46.89,20v8.52h4V20Z" id="path144370"/>
<path class="cls-3" d="M50.89,20V47.67a1.88,1.88,0,1,0,3.75,0V20l-1.87-1.61Z" id="path32739-8-3-4"/>
<path class="cls-3" d="M9.36,20V47.67a1.88,1.88,0,1,0,3.75,0V20l-1.88-1.61Z" id="path42600-4"/>
<path class="cls-4" d="M52.77,18.35,50.89,20V24.2h3.75V20Z" id="path150525"/>
<path class="cls-4" d="M11.23,18.35,9.36,20V24.2h3.75V20Z" id="rect136481"/>
<path class="cls-5" d="M9.36,14.45H54.64A1.36,1.36,0,0,1,56,15.81V18.6A1.36,1.36,0,0,1,54.64,20H9.36A1.36,1.36,0,0,1,8,18.6V15.81A1.36,1.36,0,0,1,9.36,14.45Z" id="rect30191-6-3-5"/>
<path class="cls-6" d="M50.64,14.45A1.36,1.36,0,0,1,52,15.81V18.6A1.36,1.36,0,0,1,50.64,20h4A1.36,1.36,0,0,0,56,18.6V15.81a1.36,1.36,0,0,0-1.36-1.36Z" id="path146812"/>
<path class="cls-7" d="M54.64,13.45H9.36A2.36,2.36,0,0,0,7,15.81V18.6a2.36,2.36,0,0,0,1.36,2.13V47.67a2.88,2.88,0,1,0,5.75,0V29.48H49.89V47.67a2.88,2.88,0,1,0,5.75,0V20.73A2.36,2.36,0,0,0,57,18.6V15.81A2.36,2.36,0,0,0,54.64,13.45ZM9,15.81a.36.36,0,0,1,.36-.36H54.64a.36.36,0,0,1,.36.36V18.6a.36.36,0,0,1-.36.36H9.36A.36.36,0,0,1,9,18.6Zm3.11,31.86a.88.88,0,1,1-1.75,0V21h1.75Zm2-26.71H31v6.52H14.11ZM33,27.48V21H49.89v6.52ZM52.77,48.55a.87.87,0,0,1-.88-.88V21h1.75V47.67A.87.87,0,0,1,52.77,48.55Z"/>
<path class="cls-7" d="M24.84,23.15H20.27a1,1,0,0,0,0,2h4.57a1,1,0,0,0,0-2Z"/>
<path class="cls-7" d="M43.73,23.15H39.16a1,1,0,0,0,0,2h4.57a1,1,0,0,0,0-2Z"/>
</g>
</svg>