<?xml version="1.0" ?>
<!-- Uploaded to: SVG Repo, www.svgrepo.com, Generator: SVG Repo Mixer Tools -->
<svg width="800px" height="800px" viewBox="0 0 64 64" xmlns="http://www.w3.org/2000/svg">
<defs>
<style>.cls-1{fill:#efc89d;}.cls-2{fill:#ebb87f;}.cls-3{fill:#e5936b;}.cls-4{fill:#748a95;}.cls-5{fill:#617880;}.cls-6{fill:#e17c46;}.cls-7{fill:#252b48;}</style>
</defs>
<g data-name="Table" id="Table-10">
<path class="cls-1" d="M13.11,27.26H36.4L40.12,21l-9.34-4.34h-18L11.41,23.8Z" id="path46195-8"/>
<path class="cls-2" d="M36.66,19.37,32,20v7.3H36.4L40.12,21Z" id="path157133"/>
<path class="cls-1" d="M36.4,35.67v4.71A2.59,2.59,0,0,0,39,43h11.9L53.21,18.2,36.4,20v7.3l1.77,4.2Z" id="rect44157-3"/>
<path class="cls-2" d="M53.21,18.2l-5.52.57V43h3.2Z" id="path152711"/>
<path class="cls-3" d="M36.4,35.67h2a1.59,1.59,0,0,0,1.6-1.6V28.85a1.59,1.59,0,0,0-1.6-1.59h-2Z" id="path16336-0-4-07"/>
<path class="cls-4" d="M50.89,20V47.67a1.88,1.88,0,1,0,3.75,0V20l-1.87-1.61Z" id="path32739-8-3-4-4"/>
<path class="cls-4" d="M9.36,20V47.67a1.88,1.88,0,1,0,3.75,0V20l-1.88-1.61Z" id="path42600-4-9"/>
<path class="cls-5" d="M11.23,18.35,9.36,20V24.2h3.75V20Zm41.54,0L50.89,20V24.2h3.75V20Z" id="rect136481-5"/>
<path class="cls-3" d="M9.36,14.45H54.64A1.36,1.36,0,0,1,56,15.81V18.6A1.36,1.36,0,0,1,54.64,20H9.36A1.36,1.36,0,0,1,8,18.6V15.81A1.36,1.36,0,0,1,9.36,14.45Z" id="rect30191-6-3-5-0"/>
<path class="cls-6" d="M50.64,14.45A1.36,1.36,0,0,1,52,15.81V18.6A1.36,1.36,0,0,1,50.64,20h4A1.36,1.36,0,0,0,56,18.6V15.81a1.36,1.36,0,0,0-1.36-1.36Z" id="path146812-4"/>
<path class="cls-7" d="M54.64,13.45H9.36A2.36,2.36,0,0,0,7,15.81V18.6a2.36,2.36,0,0,0,1.36,2.13V47.67a2.88,2.88,0,1,0,5.75,0V28.26H35.4V40.38A3.59,3.59,0,0,0,39,44h10.9v3.7a2.88,2.88,0,1,0,5.75,0V20.73A2.36,2.36,0,0,0,57,18.6V15.81A2.36,2.36,0,0,0,54.64,13.45ZM9,15.81a.36.36,0,0,1,.36-.36H54.64a.36.36,0,0,1,.36.36V18.6a.36.36,0,0,1-.36.36H9.36A.36.36,0,0,1,9,18.6ZM38.42,28.26a.58.58,0,0,1,.59.59v5.22a.59.59,0,0,1-.59.6h-1V28.26ZM12.11,47.67a.88.88,0,1,1-1.75,0V21h1.75Zm2-26.71H35.4v5.3H14.11ZM39,42a1.59,1.59,0,0,1-1.59-1.59V36.67h1A2.6,2.6,0,0,0,41,34.07V28.85a2.59,2.59,0,0,0-2.59-2.59h-1V21H49.89V42Zm13.78,6.58a.87.87,0,0,1-.88-.88V21h1.75V47.67A.87.87,0,0,1,52.77,48.55Z"/>
<path class="cls-7" d="M28.37,22.61H21.14a1,1,0,0,0,0,2h7.23a1,1,0,1,0,0-2Z"/>
</g>
</svg>