<?xml version="1.0" encoding="iso-8859-1"?>
<!-- Uploaded to: SVG Repo, www.svgrepo.com, Generator: SVG Repo Mixer Tools -->
<svg version="1.1" id="Layer_1" xmlns="http://www.w3.org/2000/svg" xmlns:xlink="http://www.w3.org/1999/xlink" 
	 viewBox="0 0 512 512" xml:space="preserve">
<path style="fill:#E8E8E8;" d="M483.632,383.204H28.368C12.72,383.164,0.04,370.484,0,354.836V65.988
	c0.04-15.656,12.712-28.336,28.368-28.384h455.264C499.288,37.652,511.96,50.332,512,65.988v288.864
	C511.944,370.492,499.272,383.164,483.632,383.204z"/>
<rect x="25.6" y="63.212" width="460.8" height="294.4"/>
<rect x="166.536" y="383.212" style="fill:#CCCBCA;" width="152.8" height="54.744"/>
<polygon style="fill:#E8E8E8;" points="361.44,459.188 124.448,459.188 166.552,437.948 319.336,437.948 "/>
<polygon style="fill:#AAAAAA;" points="166.536,383.212 284.848,383.212 166.536,410.628 "/>
<rect x="124.448" y="459.196" style="fill:#CCCBCA;" width="236.992" height="15.2"/>
<g style="opacity:0.15;">
	<polygon style="fill:#FFFFFF;" points="25.6,237.22 25.6,63.212 232.352,63.212 	"/>
</g>
</svg>