<?xml version="1.0" encoding="iso-8859-1"?>
<!-- Uploaded to: SVG Repo, www.svgrepo.com, Generator: SVG Repo Mixer Tools -->
<svg version="1.1" id="Layer_1" xmlns="http://www.w3.org/2000/svg" xmlns:xlink="http://www.w3.org/1999/xlink" 
	 viewBox="0 0 512 512" xml:space="preserve">
<rect x="240.327" y="365.505" style="fill:#006DF3;" width="31.347" height="62.691"/>
<rect x="256" y="365.505" style="fill:#005FD1;" width="15.673" height="62.691"/>
<rect x="192.418" y="412.526" style="fill:#FF4F18;" width="122.243" height="31.347"/>
<rect x="256" y="412.526" style="fill:#FF3400;" width="58.671" height="31.347"/>
<rect x="15.673" y="83.801" style="fill:#C8E7F9;" width="480.653" height="230.713"/>
<rect x="256" y="83.801" style="fill:#A0D9F5;" width="240.327" height="230.713"/>
<path style="fill:#00A5FF;" d="M0,68.127v313.051h512V68.127H0z M480.653,99.474v215.04H31.347V99.474H480.653z"/>
<polygon style="fill:#0082D2;" points="512,68.127 512,381.179 256,381.179 256,314.514 480.653,314.514 480.653,99.474 256,99.474 
	256,68.127 "/>
<rect x="245.551" y="337.502" style="fill:#FF4F18;" width="20.898" height="20.898"/>
<rect x="256" y="337.502" style="fill:#FF3400;" width="10.449" height="20.898"/>
</svg>